<svg xmlns="http://www.w3.org/2000/svg" width="256.547" height="254.76" viewBox="0 0 256.547 254.76">
    <defs>
        <style>
            .prefix__cls-2,.prefix__cls-9{fill:#dfe2f4}.prefix__cls-10,.prefix__cls-11,.prefix__cls-6,.prefix__cls-7,.prefix__cls-8,.prefix__cls-9{stroke:#c3c9e8}.prefix__cls-10,.prefix__cls-11,.prefix__cls-5,.prefix__cls-6,.prefix__cls-7,.prefix__cls-8,.prefix__cls-9{stroke-linecap:round}.prefix__cls-10,.prefix__cls-11,.prefix__cls-5,.prefix__cls-6,.prefix__cls-7,.prefix__cls-9{stroke-linejoin:round}.prefix__cls-5{fill:#f4f4ff;stroke:#dbdeed}.prefix__cls-6{fill:#d5d9f0}.prefix__cls-7{fill:#fff}.prefix__cls-11,.prefix__cls-8{fill:none}.prefix__cls-10{fill:#fcfcfd}
        </style>
    </defs>
    <g id="prefix__Component_75_1" data-name="Component 75 – 1" transform="translate(0 .5)">
        <path id="prefix__Path_17495" d="M26.7 4.16c1.865-1.507 5.364-.86 5.364-.86l113.473 13.3 66.387 99.4s2.1 3.852.806 6.115-5.995 2.934-5.995 2.934l-162.852-7.526s-9.127-.656-13.322-3.734-3.457-8.578-3.457-8.578l-2.5-95.884s.233-3.66 2.096-5.167z" data-name="Path 17495" transform="rotate(-31 278.262 114.999)" style="fill:#f7f8fd"/>
        <g id="prefix__Group_19264" data-name="Group 19264" transform="translate(0 .884)">
            <path id="prefix__Path_10875" d="M-1713.81 1613.036l129.8-37.254 72.767 25.1-146.422 48.741z" class="prefix__cls-2" data-name="Path 10875" transform="translate(1713.81 -1575.781)"/>
            <path id="prefix__Path_10876" d="M-1649.24 1728.207l20.133 147.494-4.116 3.637-50.961-71.628-21.151-116.245z" class="prefix__cls-2" data-name="Path 10876" transform="translate(1705.755 -1654.638)"/>
            <path id="prefix__Path_10877" d="M-1641.878 1726.141l146.1-48.652-16.229 134.753-114.484 63.805z" class="prefix__cls-2" data-name="Path 10877" transform="translate(1697.478 -1653.893)"/>
            <path id="prefix__Path_10908" d="M-1714.239 1822.936l49.889-25.519 21.31 19.84-48.073 26.413z" class="prefix__cls-2" data-name="Path 10908" transform="translate(1790.725 -1666.981)"/>
            <path id="prefix__Path_10911" d="M-1714.239 1822.936l49.889-25.519 21.31 19.84-48.073 26.413z" class="prefix__cls-2" data-name="Path 10911" transform="translate(1873.774 -1742.078)"/>
            <path id="prefix__Path_10907" d="M-1724.328 1802.031l57.622-26.344.446 23.058-44.154 21.66z" class="prefix__cls-2" data-name="Path 10907" transform="translate(1791.9 -1664.449)"/>
            <path id="prefix__Path_10890" d="M-1535.784 1803.78l27.907-13.009" class="prefix__cls-2" data-name="Path 10890" transform="translate(1686.002 -1666.207)"/>
            <path id="prefix__Path_10909" d="M-1640.135 1719.336l52.854-20.2-3.524 29.458-49.329 18.113z" class="prefix__cls-2" data-name="Path 10909" transform="translate(1782.091 -1655.531)"/>
            <path id="prefix__Path_10878" d="M-1544.359 1722l47.678 29.336-4.513 36.542-43.941-30.65z" class="prefix__cls-2" data-name="Path 10878" transform="translate(1687.091 -1658.195)"/>
            <path id="prefix__Path_10879" d="M-1489.346 1742.394l-5.952 47.9 3.493 2.819 5.774-48.974z" class="prefix__cls-2" data-name="Path 10879" transform="translate(1681.285 -1660.571)"/>
            <path id="prefix__Path_10880" d="M-1489.038 1739.161l57.927-24.521 3.951 1.222-58.11 25.153z" class="prefix__cls-2" data-name="Path 10880" transform="translate(1680.556 -1657.337)"/>
            <path id="prefix__Path_10881" d="M-1427.435 1716.153l-10.253 48.678-53.717 25.023 5.825-48.472z" class="prefix__cls-2" data-name="Path 10881" transform="translate(1680.832 -1657.514)"/>
            <path id="prefix__Path_10883" d="M-1629.245 1805.237l34.056 36.924v30.4l-30.782-32.712z" class="prefix__cls-2" data-name="Path 10883" transform="translate(1696.89 -1667.892)"/>
            <path id="prefix__Path_10906" d="M3.115 0l33.2 35.931v30.4L0 22.164z" class="prefix__cls-2" data-name="Path 10906" transform="rotate(-8 863.581 -815.694)"/>
            <path id="prefix__Path_10885" d="M-1590.7 1835.761l66.792-33.482 3.705 1.795-67.426 34.036z" class="prefix__cls-2" data-name="Path 10885" transform="translate(1692.399 -1667.547)"/>
            <path id="prefix__Path_10893" d="M-1513.62 1836.142l14.713-8.029" class="prefix__cls-2" data-name="Path 10893" transform="translate(1683.42 -1671.44)"/>
            <path id="prefix__Path_10895" d="M0 4.542L19.527 0v5.574L0 10.431z" class="prefix__cls-2" data-name="Path 10895" transform="rotate(-6.02 709.334 -833.886)"/>
            <path id="prefix__Path_10898" d="M-1565.125 1767.721l-64.33 27.323" class="prefix__cls-2" data-name="Path 10898" transform="translate(1696.915 -1663.521)"/>
            <path id="prefix__Path_10899" d="M-1489.763 1685.992l-54.391 18.936-1.962 69.734" class="prefix__cls-2" data-name="Path 10899" transform="translate(1687.206 -1654)"/>
            <path id="prefix__Path_10901" d="M-1598.172 1860.077c-.562.282-24.393 13.922-24.393 13.922l-12.4-139.686 70.762-23.478v64.5" class="prefix__cls-2" data-name="Path 10901" transform="translate(1697.557 -1656.894)"/>
            <path id="prefix__Path_10910" d="M-1531.8 1715.166l-49.586-15.763-3.272 29.077 10.245 5.252z" class="prefix__cls-2" data-name="Path 10910" transform="translate(1775.628 -1655.562)"/>
        </g>
        <path id="prefix__Path_17493" d="M-1713.81 1613.036l129.8-37.254 72.767 25.1-146.422 48.741z" data-name="Path 17493" transform="translate(1716.46 -1575.781)" style="stroke-linejoin:round;stroke-linecap:round;stroke:#c3c9e8;fill:#e4e7fa"/>
        <path id="prefix__Path_17494" d="M-1641.878 1726.141l146.1-48.652-16.229 134.753-114.484 63.805z" data-name="Path 17494" transform="translate(1701.012 -1652.126)" style="fill:#f7f7ff;stroke-linejoin:round;stroke-linecap:round;stroke:#c3c9e8"/>
        <path id="prefix__Path_17505" d="M-1714.239 1822.936l49.889-25.519 21.31 19.84-48.073 26.413z" class="prefix__cls-5" data-name="Path 17505" transform="translate(1793.375 -1666.097)"/>
        <path id="prefix__Path_17496" d="M-1714.239 1822.936l49.889-25.519 21.31 19.84-48.073 26.413z" class="prefix__cls-5" data-name="Path 17496" transform="translate(1876.424 -1741.195)"/>
        <path id="prefix__Path_17506" d="M-1649.24 1728.207l14.849 148.178-49.792-68.675-21.151-116.245z" class="prefix__cls-6" data-name="Path 17506" transform="translate(1708.405 -1653.754)"/>
        <path id="prefix__Path_17507" d="M-1724.328 1802.031l57.622-26.344.446 23.058-44.154 21.66z" class="prefix__cls-7" data-name="Path 17507" transform="translate(1794.55 -1663.566)"/>
        <path id="prefix__Path_17508" d="M-1535.784 1803.78l27.907-13.009" class="prefix__cls-8" data-name="Path 17508" transform="translate(1688.652 -1665.323)"/>
        <path id="prefix__Path_17497" d="M-1640.135 1719.336l52.854-20.2-3.524 29.458-49.329 18.113z" class="prefix__cls-7" data-name="Path 17497" transform="translate(1784.742 -1654.647)"/>
        <path id="prefix__Path_17501" d="M-1544.359 1722l47.678 29.336-4.513 36.542-43.941-30.65z" class="prefix__cls-6" data-name="Path 17501" transform="translate(1689.742 -1657.311)"/>
        <path id="prefix__Path_17509" d="M-1489.346 1742.394l-5.952 47.9 3.493 2.819 5.774-48.974z" class="prefix__cls-9" data-name="Path 17509" transform="translate(1683.936 -1659.687)"/>
        <path id="prefix__Path_17502" d="M-1489.038 1739.161l57.927-24.521 3.951 1.222-58.11 25.153z" class="prefix__cls-10" data-name="Path 17502" transform="translate(1683.206 -1656.454)"/>
        <path id="prefix__Path_17503" d="M-1427.435 1716.153l-10.253 48.678-53.717 25.023 5.825-48.472z" class="prefix__cls-7" data-name="Path 17503" transform="translate(1683.482 -1656.63)"/>
        <path id="prefix__Path_17510" d="M-1629.245 1805.237l34.056 36.924v30.4l-30.782-32.712z" class="prefix__cls-6" data-name="Path 17510" transform="translate(1699.541 -1667.008)"/>
        <path id="prefix__Path_17511" d="M3.115 0l33.2 35.931v30.4L0 22.164z" class="prefix__cls-6" data-name="Path 17511" transform="rotate(-8 871.22 -834.208)"/>
        <path id="prefix__Path_17512" d="M-1590.7 1835.761l66.792-33.482 3.705 1.795-67.426 34.036z" class="prefix__cls-10" data-name="Path 17512" transform="translate(1695.05 -1666.664)"/>
        <path id="prefix__Path_17513" d="M-1519.81 1804.266l-3.223 41.43-64.309 35.639v-43.061z" class="prefix__cls-7" data-name="Path 17513" transform="translate(1694.659 -1666.895)"/>
        <path id="prefix__Path_17517" d="M-1590.7 1840.176v41.805l3.01 3.745v-43.5z" class="prefix__cls-9" data-name="Path 17517" transform="translate(1695.05 -1671.079)"/>
        <path id="prefix__Path_17516" d="M-1513.62 1836.142l14.713-8.029" class="prefix__cls-8" data-name="Path 17516" transform="translate(1686.07 -1670.557)"/>
        <path id="prefix__Path_17504" d="M0 4.542L19.527 0v5.574L0 10.431z" class="prefix__cls-9" data-name="Path 17504" transform="rotate(-6.02 719.054 -858.613)"/>
        <path id="prefix__Path_17518" d="M.884 3.243L15.807-.671l-1.34 4.411L0 7.79z" class="prefix__cls-9" data-name="Path 17518" transform="rotate(-11 904.523 -616.786)"/>
        <path id="prefix__Path_17514" d="M1.6 3.7L16.56-.686l-1.375 4.642L0 8.207z" class="prefix__cls-9" data-name="Path 17514" transform="rotate(-8 682.745 -1513.443)"/>
        <path id="prefix__Path_17515" d="M-1565.125 1767.721l-64.33 27.323" class="prefix__cls-8" data-name="Path 17515" transform="translate(1699.564 -1662.638)"/>
        <path id="prefix__Path_17498" d="M-1489.763 1685.992l-54.391 18.936-1.962 69.734" class="prefix__cls-11" data-name="Path 17498" transform="translate(1689.855 -1653.116)"/>
        <path id="prefix__Path_17499" d="M-1598.172 1860.077c-.562.282-24.393 13.922-24.393 13.922l-12.4-139.686 70.762-23.478v64.5" class="prefix__cls-11" data-name="Path 17499" transform="translate(1700.207 -1656.011)"/>
        <path id="prefix__Path_17500" d="M-1531.8 1715.166l-49.586-15.763-3.272 29.077 10.245 5.252z" class="prefix__cls-6" data-name="Path 17500" transform="translate(1778.278 -1654.679)"/>
    </g>
</svg>
